Coordinates
version=1
nRows=5
nColumns=63
inDegrees=yes

Units are S.I. units (second, meters, Newtons, ...)
If the header above contains a line with 'inDegrees', this indicates whether rotational values are in degrees (yes) or radians (no).

endheader
time	pelvis_tilt	pelvis_list	pelvis_rotation	pelvis_tx	pelvis_ty	pelvis_tz	hip_flexion_r	hip_adduction_r	hip_rotation_r	knee_angle_r	knee_angle_r_beta	ankle_angle_r	subtalar_angle_r	mtp_angle_r	hip_flexion_l	hip_adduction_l	hip_rotation_l	knee_angle_l	knee_angle_l_beta	ankle_angle_l	subtalar_angle_l	mtp_angle_l	L5_S1_Flex_Ext	L5_S1_Lat_Bending	L5_S1_axial_rotation	L4_L5_Flex_Ext	L4_L5_Lat_Bending	L4_L5_axial_rotation	L3_L4_Flex_Ext	L3_L4_Lat_Bending	L3_L4_axial_rotation	L2_L3_Flex_Ext	L2_L3_Lat_Bending	L2_L3_axial_rotation	L1_L2_Flex_Ext	L1_L2_Lat_Bending	L1_L2_axial_rotation	L1_T12_Flex_Ext	L1_T12_Lat_Bending	L1_T12_axial_rotation	Abs_r3	Abs_r2	Abs_r1	Abs_t1	Abs_t2	neck_flexion	neck_bending	neck_rotation	arm_flex_r	arm_add_r	arm_rot_r	elbow_flex_r	pro_sup_r	wrist_flex_r	wrist_dev_r	arm_flex_l	arm_add_l	arm_rot_l	elbow_flex_l	pro_sup_l	wrist_flex_l	wrist_dev_l
      3.65454545	      7.24070125	     -4.41228303	     88.07745231	      0.29063072	      0.87712758	      0.48233062	     -2.66098421	      6.49791389	     -7.43134857	     11.08013045	      0.19338476	     34.71596874	     10.34346891	      0.00000000	     -6.77858169	     -8.67117542	      4.12401994	      1.35125894	      0.02358392	     35.74088214	     -9.84520193	      0.00000000	      0.02847831	      1.19193276	      0.32843697	      0.05288707	      1.58527057	      0.34896428	      0.04678702	      2.89806532	      0.34896428	      0.03254786	      2.89806532	      0.28738235	      0.02644496	      2.43058929	      0.26685504	      0.01627251	      1.84630385	      0.24632773	      0.20341773	     13.48338180	      1.82666792	      0.00000000	      0.00000000	     27.85675769	     -8.00569544	     11.28892537	     27.02279000	    -37.92815673	    146.15913552	      2.05942513	     40.02410210	    -11.68611466	      4.03108538	     23.66805781	    -26.97703886	    115.94933906	      5.15440600	     24.42959632	    -16.35754102	     -0.91994884
      3.67272727	      6.92341559	     -4.59821883	     88.10583053	      0.29080649	      0.87751691	      0.48342261	     -2.39315623	      6.15765023	     -7.35457117	     11.15432995	      0.19467978	     34.66719123	     10.38323001	      0.00000000	     -6.54201639	     -8.40071219	      4.27037694	      1.09050029	      0.01903282	     35.36595598	     -9.72638785	      0.00000000	      0.04063883	      1.14702359	      0.32199961	      0.07547036	      1.52554137	      0.34212458	      0.06676553	      2.78887315	      0.34212458	      0.04644611	      2.78887315	      0.28174966	      0.03773721	      2.33901050	      0.26162468	      0.02322103	      1.77673954	      0.24149970	      0.29027907	     12.97536025	      1.79086521	      0.00000000	      0.00000000	     27.87255367	     -7.87975346	     11.04800487	     28.11874225	    -37.14618308	    146.86547698	      1.90443535	     40.29852030	    -11.40150591	      3.53201344	     24.78247123	    -26.13248751	    116.31275695	      5.03800041	     24.33310351	    -16.53905020	     -1.93152742
      3.69090909	      6.54364417	     -4.67984221	     88.20698586	      0.29069009	      0.87850444	      0.48540504	     -2.11006186	      5.73212146	     -7.42996735	     11.33805404	      0.19788637	     34.61187077	     10.43967662	      0.00000000	     -6.26338513	     -8.06024710	      4.45472521	      0.95244632	      0.01662332	     34.95065795	     -9.54742523	      0.00000000	      0.03231821	      1.09654649	      0.30320817	      0.06001815	      1.45840683	      0.32215868	      0.05309559	      2.66614313	      0.32215868	      0.03693648	      2.66614313	      0.26530715	      0.03001069	      2.23607760	      0.24635664	      0.01846663	      1.69855051	      0.22740612	      0.23084576	     12.40435318	      1.68635286	      0.00000000	      0.00000000	     27.82620458	     -7.84931543	     10.78463961	     29.54649152	    -35.97417530	    148.11656499	      1.51154848	     40.35463639	    -11.37597565	      2.63730347	     25.98166864	    -24.81588496	    117.80572561	      4.70476529	     24.61583803	    -16.50262294	     -3.64138700
      3.70909091	      6.18819817	     -4.65562000	     88.39404196	      0.28985427	      0.87993936	      0.48800865	     -1.79213780	      5.11305805	     -9.41966634	     11.78283454	      0.20564926	     34.84274236	     12.58862086	      0.00000000	     -6.01616161	     -7.69852554	      4.55253915	      0.86955038	      0.01517652	     34.46422044	     -9.22158051	      0.00000000	      0.00793212	      1.05354586	      0.27702959	      0.01473075	      1.40121600	      0.29434394	      0.01303169	      2.56159141	      0.29434394	      0.00906563	      2.56159141	      0.24240089	      0.00736577	      2.14839072	      0.22508654	      0.00453242	      1.63194254	      0.20777219	      0.05665837	     11.91792150	      1.54075547	      0.00000000	      0.00000000	     27.68284865	     -7.93135255	     10.30491983	     31.44412640	    -34.60936540	    159.66849169	      0.97503613	     28.48018010	    -11.18878672	      1.65700412	     27.31640254	    -22.68816303	    133.62578147	      3.29152541	     12.46009303	    -15.43105082	     -5.27138919
      3.72727273	      5.90904739	     -4.27211539	     88.88483167	      0.28890574	      0.88183317	      0.49053528	     -2.04777506	      4.77864338	    -10.11941547	     11.69887761	      0.20418393	     34.69848819	     12.83085000	      0.00000000	     -6.10829622	     -7.44853740	      4.71124498	      0.81261407	      0.01418279	     34.02108925	     -8.53541305	      0.00000000	     -0.05178394	      1.01006873	      0.23220695	     -0.09616796	      1.34339141	      0.24671989	     -0.08507584	      2.45588111	      0.24671989	     -0.05918387	      2.45588111	      0.20318109	     -0.04808657	      2.05973216	      0.18866815	     -0.02958934	      1.56459646	      0.17415522	     -0.36988751	     11.42609949	      1.29146542	      0.00000000	      0.00000000	     27.32322342	     -8.16791099	      9.30741322	     33.10476421	    -32.86022816	    162.53186065	      0.66483370	     23.57428284	    -12.23364734	     -0.30781695	     28.38606460	    -20.24643885	    143.48019718	      1.75506385	      8.73874721	    -15.20632683	     -7.36627162
